<?xml version="1.0" standalone="no"?>
<!DOCTYPE svg PUBLIC "-//W3C//DTD SVG 20010904//EN"
 "http://www.w3.org/TR/2001/REC-SVG-20010904/DTD/svg10.dtd">
<svg version="1.0" xmlns="http://www.w3.org/2000/svg"
 width="512.000000pt" height="512.000000pt" viewBox="0 0 512.000000 512.000000"
 preserveAspectRatio="xMidYMid meet">

<g transform="translate(0.000000,512.000000) scale(0.100000,-0.100000)"
fill="rgba(255,255,255,0.3)" stroke="none">
<path d="M689 4773 c-288 -365 -532 -859 -660 -1343 -30 -112 -33 -331 -6
-430 39 -144 105 -245 196 -298 41 -24 56 -27 136 -27 101 0 154 14 276 75
102 50 177 102 284 197 116 102 202 200 460 523 231 289 313 376 450 479 168
126 453 293 595 350 85 34 208 54 275 45 73 -11 163 -62 211 -121 78 -96 109
-218 100 -393 -8 -164 -42 -288 -143 -520 -81 -186 -169 -347 -408 -750 -67
-113 -147 -251 -179 -307 -165 -296 -320 -698 -356 -926 -19 -117 -10 -260 22
-328 86 -186 350 -222 633 -85 163 78 295 171 635 446 243 196 413 310 464
310 23 0 32 -29 51 -161 31 -217 87 -349 193 -461 l36 -38 -139 0 c-77 -1
-191 -7 -253 -14 -99 -12 -117 -17 -139 -39 -31 -31 -36 -91 -10 -130 11 -17
58 -48 127 -82 216 -108 429 -182 886 -306 162 -44 359 -100 438 -124 174 -54
195 -56 230 -14 30 35 33 67 11 110 -49 95 -841 1359 -866 1381 -33 32 -74 36
-118 13 -16 -8 -32 -22 -36 -32 -4 -10 -7 -155 -6 -323 l1 -305 -30 34 c-73
84 -124 222 -155 413 -32 208 -86 278 -212 278 -66 -1 -142 -28 -218 -80 -73
-49 -325 -233 -440 -321 -391 -298 -619 -429 -749 -429 -160 0 -177 174 -56
556 86 271 229 568 443 921 320 528 482 895 542 1227 58 320 -66 652 -283 758
-66 32 -69 33 -202 32 -113 0 -152 -5 -236 -27 -321 -84 -685 -299 -949 -562
-55 -55 -181 -192 -280 -305 -220 -252 -491 -525 -605 -609 -123 -90 -216
-134 -286 -134 -70 0 -100 20 -137 95 -83 165 -50 481 86 818 89 221 178 389
426 804 56 93 101 174 101 180 0 27 -32 56 -60 56 -25 0 -40 -13 -91 -77z
m3855 -3838 c135 -214 244 -390 243 -392 -9 -8 -670 180 -822 234 -113 40
-139 52 -115 53 8 1 91 7 185 14 154 13 171 16 187 36 10 12 18 29 18 37 0 8
9 26 20 40 18 24 20 41 20 206 0 108 4 177 9 172 5 -6 120 -185 255 -400z"/>
</g>
</svg>
