<?xml version="1.0" standalone="no"?>
<!DOCTYPE svg PUBLIC "-//W3C//DTD SVG 20010904//EN"
 "http://www.w3.org/TR/2001/REC-SVG-20010904/DTD/svg10.dtd">
<svg version="1.0" xmlns="http://www.w3.org/2000/svg"
 width="512.000000pt" height="512.000000pt" viewBox="0 0 512.000000 512.000000"
 preserveAspectRatio="xMidYMid meet">

<g transform="translate(0.000000,512.000000) scale(0.100000,-0.100000)"
fill="rgba(255,255,255,0.3)" stroke="none">
<path d="M1194 4876 c-344 -125 -633 -358 -854 -689 -376 -562 -444 -1263
-176 -1812 202 -412 545 -651 1014 -705 58 -7 181 -11 282 -8 l179 3 6 -50
c11 -84 52 -240 85 -322 81 -202 186 -364 345 -531 229 -240 509 -409 830
-500 134 -38 207 -47 385 -47 146 0 193 4 280 24 381 84 733 318 1008 669 52
66 55 101 13 143 -22 21 -39 29 -66 29 -33 0 -47 -11 -173 -138 -200 -202
-374 -311 -622 -392 -176 -57 -230 -65 -455 -65 -181 1 -211 3 -312 27 -423
100 -757 363 -946 743 -65 130 -120 294 -141 416 l-6 37 72 17 c40 10 130 37
199 61 708 241 1234 740 1333 1264 20 103 20 246 1 328 -57 239 -257 392 -515
392 -199 0 -352 -71 -550 -254 -434 -400 -716 -940 -771 -1477 l-12 -117 -45
-6 c-86 -12 -338 -6 -428 9 -484 84 -818 415 -925 918 -31 145 -31 376 0 537
98 512 418 985 855 1265 32 20 108 62 168 91 131 65 151 97 100 157 -21 24
-54 21 -158 -17z m1875 -1326 c141 -71 229 -382 162 -574 -64 -186 -331 -479
-605 -664 -210 -142 -447 -257 -666 -322 -40 -12 -79 -24 -86 -27 -17 -6 -12
41 17 187 100 494 511 1129 869 1340 130 77 236 98 309 60z"/>
<path d="M4770 1410 c-289 -16 -576 -65 -617 -106 -27 -27 -29 -60 -7 -92 27
-39 55 -43 176 -27 111 15 476 21 535 9 29 -6 30 -7 26 -57 -13 -171 -37 -344
-58 -422 -48 -173 -25 -276 60 -283 78 -7 132 46 159 153 29 112 56 329 68
537 11 189 10 208 -5 232 -41 62 -84 69 -337 56z"/>
</g>
</svg>
